<svg preserveAspectRatio="none" overflow="visible" style="display: block;" width="1024" height="1024" viewBox="0 0 1024 1024" fill="none" xmlns="http://www.w3.org/2000/svg">
<g id="DPE / Web + Favicon">
<g clip-path="url(#clip0_0_4)">
<rect width="1024" height="1024" rx="180" fill="url(#paint0_linear_0_4)"/>
<g id="Top Light" filter="url(#filter1_f_0_4)">
<ellipse cx="512" cy="-51.2" rx="614.4" ry="409.6" fill="white" fill-opacity="0.06"/>
</g>
<g id="lucide/rabbit">
<g id="Vector" filter="url(#filter2_d_0_4)">
<path d="M542.507 634.027C560.185 634.003 577.49 639.1 592.333 648.701C607.176 658.302 618.921 671.996 626.149 688.129C633.376 704.261 635.777 722.142 633.06 739.609C630.344 757.077 622.627 773.384 610.842 786.56M695.04 512H695.345M695.04 786.56H450.987C418.624 786.56 387.586 773.704 364.701 750.819C341.817 727.935 328.96 696.897 328.96 664.533C328.96 607.897 351.459 553.581 391.507 513.533C431.555 473.485 485.871 450.987 542.507 450.987H548.608L438.784 341.163C433.176 335.554 428.727 328.896 425.691 321.567C422.656 314.239 421.094 306.385 421.094 298.453C421.094 282.434 427.457 267.071 438.784 255.744C450.112 244.417 465.475 238.053 481.494 238.053C489.426 238.053 497.28 239.615 504.608 242.651C511.936 245.686 518.594 250.135 524.203 255.744L627.926 359.467H634.027M634.027 359.467C734.699 359.467 817.067 441.835 817.067 542.507V573.013C817.067 589.195 810.639 604.714 799.197 616.156C787.754 627.598 772.235 634.027 756.054 634.027H725.547C701.274 634.027 677.996 643.669 660.833 660.832C643.669 677.996 634.027 701.274 634.027 725.547M634.027 359.467L634.027 267.947C634.027 251.765 640.455 236.246 651.897 224.804C663.34 213.361 678.859 206.933 695.04 206.933C711.222 206.933 726.741 213.361 738.183 224.804C749.626 236.246 756.054 251.765 756.054 267.947V406.447M378.137 527.985C369.559 512.803 356.822 500.388 341.425 492.201C326.029 484.014 308.614 480.396 291.23 481.773C273.847 483.15 257.218 489.465 243.303 499.974C229.387 510.482 218.764 524.748 212.682 541.091C206.601 557.434 205.316 575.175 208.977 592.224C212.639 609.273 221.095 624.921 233.35 637.327C245.605 649.732 261.149 658.378 278.152 662.247C295.156 666.115 312.91 665.046 329.326 659.164" stroke="#9AE600" stroke-width="64" stroke-linecap="round" stroke-linejoin="round"/>
</g>
<g id="Vector_2">
</g>
</g>
<rect id="Rim Light" x="2" y="2" width="1020" height="1020" rx="178" stroke="url(#paint1_linear_0_4)" stroke-width="4"/>
</g>
</g>
<defs>
<filter id="filter0_n_0_4" x="0" y="0" width="1024" height="1024" filterUnits="userSpaceOnUse" color-interpolation-filters="sRGB">
<feFlood flood-opacity="0" result="BackgroundImageFix"/>
<feBlend mode="normal" in="SourceGraphic" in2="BackgroundImageFix" result="shape"/>
<feTurbulence type="fractalNoise" baseFrequency="2 2" stitchTiles="stitch" numOctaves="3" result="noise" seed="6643" />
<feColorMatrix in="noise" type="luminanceToAlpha" result="alphaNoise" />
<feComponentTransfer in="alphaNoise" result="coloredNoise1">
<feFuncA type="discrete" tableValues="1 1 1 1 1 1 1 1 1 1 1 1 1 1 1 1 1 1 1 1 1 1 1 1 1 1 1 1 1 1 1 1 1 1 1 1 1 1 1 1 1 1 1 1 1 1 1 1 1 1 1 0 0 0 0 0 0 0 0 0 0 0 0 0 0 0 0 0 0 0 0 0 0 0 0 0 0 0 0 0 0 0 0 0 0 0 0 0 0 0 0 0 0 0 0 0 0 0 0 0 "/>
</feComponentTransfer>
<feComposite operator="in" in2="shape" in="coloredNoise1" result="noise1Clipped" />
<feFlood flood-color="rgba(0, 0, 0, 0.1)" result="color1Flood" />
<feComposite operator="in" in2="noise1Clipped" in="color1Flood" result="color1" />
<feMerge result="effect1_noise_0_4">
<feMergeNode in="shape" />
<feMergeNode in="color1" />
</feMerge>
</filter>
<filter id="filter1_f_0_4" x="-302.4" y="-660.8" width="1628.8" height="1219.2" filterUnits="userSpaceOnUse" color-interpolation-filters="sRGB">
<feFlood flood-opacity="0" result="BackgroundImageFix"/>
<feBlend mode="normal" in="SourceGraphic" in2="BackgroundImageFix" result="shape"/>
<feGaussianBlur stdDeviation="100" result="effect1_foregroundBlur_0_4"/>
</filter>
<filter id="filter2_d_0_4" x="129.937" y="133.933" width="764.13" height="733.627" filterUnits="userSpaceOnUse" color-interpolation-filters="sRGB">
<feFlood flood-opacity="0" result="BackgroundImageFix"/>
<feColorMatrix in="SourceAlpha" type="matrix" values="0 0 0 0 0 0 0 0 0 0 0 0 0 0 0 0 0 0 127 0" result="hardAlpha"/>
<feOffset dy="4"/>
<feGaussianBlur stdDeviation="22.5"/>
<feColorMatrix type="matrix" values="0 0 0 0 0.369 0 0 0 0 0.647 0 0 0 0 0 0 0 0 0.6 0"/>
<feBlend mode="normal" in2="BackgroundImageFix" result="effect1_dropShadow_0_4"/>
<feBlend mode="normal" in="SourceGraphic" in2="effect1_dropShadow_0_4" result="shape"/>
</filter>
<linearGradient id="paint0_linear_0_4" x1="3.8147e-06" y1="512" x2="1024" y2="512" gradientUnits="userSpaceOnUse">
<stop stop-color="#27272A"/>
<stop offset="1" stop-color="#18181B"/>
</linearGradient>
<linearGradient id="paint1_linear_0_4" x1="512" y1="0" x2="512" y2="1024" gradientUnits="userSpaceOnUse">
<stop stop-color="white" stop-opacity="0.32"/>
<stop offset="0.42" stop-color="white" stop-opacity="0.05"/>
<stop offset="0.7" stop-color="white" stop-opacity="0"/>
<stop offset="1" stop-color="white" stop-opacity="0.12"/>
</linearGradient>
<clipPath id="clip0_0_4">
<rect width="1024" height="1024" rx="180" fill="white"/>
</clipPath>
</defs>
</svg>
